<svg xmlns="http://www.w3.org/2000/svg" width="600" height="600" viewBox="0 0 600 600"><defs><style>.a{fill:#365297;}</style></defs><title>David Savage</title><path class="a" d="M216.5845,336.2193v-.8041c-1.9887,2.294-3.7839,4.9746-3.8766,7.9415,2.9515-1.6478,6.2671-2.8076,9.3652-.5647-.7218,5.75,6.0069,6.4806,8.38,2.3531,1.8022,2.06,4.0383,2.725,6.23,4.0212,2.7808-3.4026,5.4513-7.8709,10.3378-5.8338-.4317-2.0559.2729-4.3459-.5849-6.1719,3.2349-1.2425,6.8981-1.7723,10.23-2.7068.2363-.6724-.36-2.32-.562-2.8985,1.2841-.5345,1.471-.5452,2.2079-1.6075-8.44-1.9807-12.4811-1.7306-20.8449.6212C231.599,332.22,222.9663,337.0086,216.5845,336.2193Z"/><path class="a" d="M190.8558,322.5508l-1.6082.8041c5.8708,2.6046,13.5434,6.964,20.1013,7.2377,7.0406.2924,13.9482-3.396,20.6647-4.822-7.8662.0168-14.83,1.9955-22.25.7779-6.46-1.06-12.2888-3.876-18.3925-5.4876C188.6788,323.12,190.0719,321.8624,190.8558,322.5508Z"/><path class="a" d="M276.6562,301.4632c-7.6266,1.8261-11.93,6.804-18.8471,10.8521-3.3119,1.9349-19.347,8.3167-17.91,10.2328l-.8028.8041C250.8222,315.98,269.1587,314.7088,276.6562,301.4632Z"/><path class="a" d="M276.72,301.3637c-.0195.035-.0444.0645-.0642.0995.0443-.01.0857-.0242.13-.0343Q277.2159,300.967,276.72,301.3637Z"/><path class="a" d="M367.2025,205.5964c.2945-3.8531.6555-7.6666,1.9723-11.0679,3.9765-10.2678,7.2-11.8317,15.312-5.5548-5.4862-14.369-11.3274-6.3354-15.7608-1.3258-3.09,3.4907-7.4581,20.896-5.3037,21.5313H362.92c-1.0448,4.2223-1.4,9.4194.0023,13.3411,2.5283-3.441,3.3946-7.5631,3.8528-11.8418,1.4583,2.257,3.4181,3.6945,5.8923,1.736a76.5334,76.5334,0,0,1-5.5131-6.1814c.0131-.1748.0262-.35.04-.5251"/><path class="a" d="M319.174,266.2667c-1.3138,2.41,2.6073,16.497,2.8143,22.2938.3053,8.5319.3308,17.6621-1.147,25.8242,8.6324-.7315,5.4822-42.4-.9641-48.118Z"/><path class="a" d="M362.26,423.7613c16.1272-4.06,16.7253-37.14,16.7411-51.5912-3.35,9.6325-4.4425,24.96-7.0017,33.24C369.46,413.6273,364.0816,415.2786,362.26,423.7613Z"/><path class="a" d="M301.0076,420.6424c-13.8513,9.6358-24.9569,15.7715-39.1161,24.1608,7.3364-1.93,14.3-3.9748,20.623-8.8841l4.0205-1.6082c28.1407-17.689,38.1669-29.2356,56.1624-46.8547a10.5572,10.5572,0,0,0-1.4266-2.3088C327.5028,395.3178,315.0365,410.8829,301.0076,420.6424Z"/><path class="a" d="M166.0441,178.4988a16.2211,16.2211,0,0,1,2.177,0c.6468-5.0223.2017-7.7291-2.2926-11.9352H164.32C167.6685,170.4181,164.7492,173.94,166.0441,178.4988Z"/><path class="a" d="M226.0882,164.8552c-.4084-4.2565-2.9444-11.4195-7.8968-11.9594C220.2084,156.2891,222.7417,163.758,226.0882,164.8552Z"/><path class="a" d="M227.0352,148.0705c.4948,4.1832-2.2012,9.06.6021,11.9775.8125-3.0194,2.3064-5.32,4.868-6.2271,1.8486,2.3465,3.0547,2.7088,5.6664.8035-.9238,1.24-1.6946,3.8766-2.9744,5.302q.45.4386.8875.8874c1.7924-1.584,8.3187-4.4,15.3566-6.8033-4.0672,2.1219-7.7378,4.4179-6.7172,5.3161,8.0612-5.1863,17.1068-7.0366,25.89-9.5834a2.4715,2.4715,0,0,1,1.5857.6025c6.4867,1.6209,12.96,1.55,19.6818.98-.2622-.4935-1.065-1.1739-1.4038-1.6472,5.181-5.33,12.0024,5.1864,18.2857,4.8636-2.6567-2.6947-4.3671-5.6435-7.4357-8.08,1.2371-1.5847.2609-1.5948,1.2143-3.0591-9.9774-1.78-24.3548-8.9924-34.2149-6.8094,1.0287.468,2.2,1.39,3.4924,1.8691-4.2279-.0571-8.516-.2622-12.3406.718,2.6641,1.3111,5.3077,1.6863,8.32,2.4984-7.9093-1.2357-13.9025,3.8471-21.1878,4.8435.043-.2925,1.0434-.62,1.01-.8646-4.8825-2.5414-12.2458,1.4677-15.7608,5.3094-.6118-.6461-1.2155-1.3118-1.8075-1.9774-.5886-.0779-.7285.905-1.2462.6152-.2918-.8585.1056-1.4421.0558-2.1521"/><path class="a" d="M152.5727,203.7011a14.2472,14.2472,0,0,0-2.0372.2218,52.9424,52.9424,0,0,1,8.8069-3.607,13.0925,13.0925,0,0,1,2.107-.6253,26.9516,26.9516,0,0,1,5.9125-.6192c3.5015,0,4.272-.837,9.5726,1.1773l2.294.4585a14.8447,14.8447,0,0,0,2.7993.3671,1.0293,1.0293,0,0,0-.5967-1.3312,39.54,39.54,0,0,0-14.0692-2.7391,24.3359,24.3359,0,0,0-8.7309,1.3742c-9.4711,2.9529-15.0239,7.1691-17.8362,9.8786a8.2294,8.2294,0,0,0-1.937,1.8791c-.035.1217-.0652.2327-.0941.3335-.2.2582-.3079.4148-.32.4343a1.0322,1.0322,0,0,0-.157.3819,3.1464,3.1464,0,0,1-1.2321.3826,3.2037,3.2037,0,0,1-2.4,3.44,2.6131,2.6131,0,0,0,1.7679,2.134,4.827,4.827,0,0,0-1.4411,1.8758,29.18,29.18,0,0,0,4.4693-.9749l-.6868.3429a29.8944,29.8944,0,0,1,9.1611.5392s10.7788,0,14.0114-2.1555c0,0,.8206-.4189,2.0526-.995l.0935-.0216.1711-.1008c2.7542-1.2774,7.2622-3.1936,9.5373-3.1936a5.5306,5.5306,0,0,0,1.18-.2225c2.5367-.4949,8.4569-1.7514,10.1371-3.0114,0,0,.5388-2.6947-3.7718-2.6947l-.3553-.0719c.0117-.0108.0356-.0343.0407-.0383-2.762-1.4408-11.2461-5.2791-16.1091-5.2791a13.4638,13.4638,0,0,0-4.0662.1506m-2.9573,6.5551-.01.0162c2.0176-1.3891,6.14-1.7951,8.0282-.2138-1.3281,2.3894-6.0479,1.512-8.2074.9775a1.0733,1.0733,0,0,1,.1792-.7637c-.07.0484-.1577.0881-.2222.1385l.2322-.1547m13.9956,3.3173c.9618-3.5257.1335-5.2583-.4538-5.9837.6188.04,1.2307.076,1.8761.13.2115.0175.43.04.6444.0592l.0138.0054-.6582-.0646,7.49,2.8372s.1338.5688-.7449,1.4113m-33.2037,6.6728-.0424.0249a9.6482,9.6482,0,0,0-4.746-.09c.2979-1.8449,2.05-7.4333,12.178-9.939-2.2678,4.1792.9943,8.1816,2.8069,9.95A33.7585,33.7585,0,0,1,146.8478,216.3321Z"/><path class="a" d="M278.6737,171.1924l-5.2208-.1434-3.5858.4016-3.8152.545-3.4424,1.4057-1.7211.99-2.8113,1.9363-1.74,1.4307c-3.6709,3.2124-6.8847,5.9676-6.8847,5.9676-2.294,3.2137-7.803,6.4248-7.803,6.4248-3.2124,2.294-2.2954,3.2137-2.2954,3.2137h3.6723c4.5893-.4585,13.7693-1.8368,13.7693-1.8368,11.474-2.7539,32.5878-11.9325,32.5878-11.9325a11.3008,11.3008,0,0,0,1.7676-1.705l4.1987-1.0489-6.4261-1.8368-5.4876-2.7215m-21.3589,6.7488-.01.0161c2.0177-1.389,6.14-1.7951,8.0283-.2138-1.3282,2.3895-6.0479,1.5121-8.2075.9776a1.0746,1.0746,0,0,1,.1792-.7638c-.07.0484-.1576.0881-.2222.1385l.2323-.1546m-8.0354,11.119a40.589,40.589,0,0,0-5.8143.4074l-1.07-1.7844,8.2616-7.8017c.9624-.6414,1.8633-1.2155,2.7135-1.7379-.3173.796-2.3411,6.4308,2.3764,9.3225C256.89,189.527,254.0413,190.15,254.0413,190.15Zm27.9972-9.6385c-1.2788.4255-3.1478,1.1483-4.787,1.8.2619-2.099.2407-6.08-3.0147-8.6851,0,0-.1335-.0592-.3708-.1385,9.3629-.478,12.3033,5.6462,12.3033,5.6462"/><path class="a" d="M198.9681,227.5385c-2.1383-27.1016-13.5394-38.394-13.5394-38.394-6.4126-4.5167.7127,5.27.7127,5.27,8.6253,15.1886,10.7536,31.3507,11.2541,37.0265a42.725,42.725,0,0,0-5.465,14.8605c-3.7946,4.5329-11.67,15.1355-9.3605,22.6434a5.9935,5.9935,0,0,0,1.5689,3.81c-.02-.0169-.0424-.029-.0629-.0458,0,0,0,2.2591,4.5167,5.27,0,0,10.5408,4.5167,18.8212-1.5061l-1.506-1.5046s-11.6357,4.7661-20.55-1.3232c.4887.2542,1.3608,1.537,2.0364,1.65,0,0-8.2192-5.7,4.35-22.96.675,4.7016,3.8941,9.9558,7.3872,9.0818-.8411-3.65-3.18-8.4075-4.9877-12.2055.16-.2.3062-.3906.471-.593,0-12.0461,8.28-20.3259,8.28-20.3259.7516-4.5173-3.0107-.753-3.0107-.753"/><path class="a" d="M197.6362,266.8355c-2.53.21-5.0717,1.2277-8.2905,3.6138l1.6446.1681c4.4057.238,7.4655-1.1779,10.5044-1.9686,3.5731,1.1026,7.54,2.2947,9.5656.4848-3.3452-2.3176-8.0071-1.7333-11.9281-2.448"/><path class="a" d="M223.2228,262.9206l2.6069-.6509a.7005.7005,0,0,1-.1634-.1223c4.8953-.4828,11.5584-1.9847,15.7379-4.4952C236.741,253.2538,226.4153,257.9628,223.2228,262.9206Zm2.0008-1.4234c-.118-.2386-.1429-.3509,0,0Z"/><path class="a" d="M226.2351,262.1689l-.4054.1008A.3059.3059,0,0,0,226.2351,262.1689Z"/><path class="a" d="M247.4357,238.6737a13.3131,13.3131,0,0,0-1.4774-.7947,15.6064,15.6064,0,0,0-1.7444-.7208c.0087.0262.0212.0525.0306.0794-4.6757-1.3971-9.7111-.2508-14.7039.0383a13.4962,13.4962,0,0,0-7.8235-6.7267l-1.4079-.6212c1.3339,3.1936,6.9358,11.0726,9.5,13.3027a5.62,5.62,0,0,0,.4966-3.7166c4.22-.2219,11.3307.9762,15.3745.3328,3.5364,4.9342,10.927,10.0432,8.4485,17.0892-2.4177,6.8733-14.2534,5.9347-19.6133,9.75l-1.506,2.2577c7.8807-4.0609,22.8589-1.92,23.9229-12.9652C257.602,249.0329,253.1414,242.0978,247.4357,238.6737Z"/><path class="a" d="M238.8964,186.9379s7.8018-7.8017,11.9326-11.474a33.6847,33.6847,0,0,1,5.9676-3.2137c.2581-.0632,16.5877-5.0358,27.9971-2.7539,0,0,5.9676.9184,7.8031,1.3769,0,0-4.1308-5.0478-22.0309-3.6709,0,0-9.1787,1.8341-12.3924,2.294a32.6627,32.6627,0,0,0-11.0155,6.4261s-6.4247,7.3432-8.2616,8.72C238.8964,184.6425,235.2255,187.3964,238.8964,186.9379Z"/><path class="a" d="M242.0527,200.2285a28.1515,28.1515,0,0,0,7.5785-1.54,37.2092,37.2092,0,0,1,5.2418-1.3124l-.0749-.6845a57.0365,57.0365,0,0,0-6.0056.44,57.4969,57.4969,0,0,1-6.0641.4438,14.0445,14.0445,0,0,1-6.77-1.4173c-5.5407-2.9387-7.0289-7.2134-8.6516-13.3955v-4.0864l-.6834-.0592c-1.942,11.1594,2.0207,19.0861,12.1154,24.2321,6.4312,3.279,14.9109,7.2276,23.4734,8.6738l.2508-.6246a50.6678,50.6678,0,0,0-8.7266-4.2532C249.373,204.8313,244.87,202.96,242.0527,200.2285Z"/><path class="a" d="M188.1419,211.2164l-.7987.2487c-1.2794.3987-3.6487,3.5634-6.3851,7.3466-.6982.9655-1.301,1.7991-1.6627,2.24-1.8919,2.3068-4.0622,4.4757-6.1605,6.5734-.92.919-1.8415,1.84-2.7475,2.7787-4.9326,5.1043-13.894,9.1518-20.2654,11.7833l-1.9726,1.3157.6821.2172a4.0431,4.0431,0,0,0,1.2162.1654h.0007c2.7448,0,7.1156-1.9444,10.0076-3.2306.5265-.234,1.0021-.4457,1.4072-.6185a35.5064,35.5064,0,0,0,12.0717-8.71A95.6283,95.6283,0,0,0,187.75,211.9553Z"/><path class="a" d="M172.7231,171.871c-.7625-.1372-1.2976-.8149-1.7562-.9978h-.4585c1.1873,2.5791-1.0273,5.5562-1.1967,8.3033A9.8353,9.8353,0,0,0,172.7231,171.871Z"/><path class="a" d="M221.5113,164.4592c-2.13-2.4493-3.5768-4.8771-6.9411-5.52l.9184-.4586a5.3673,5.3673,0,0,0-3.054.1022c2.7958,2.0318,5.153,5.8251,8.47,6.7112C220.9157,165.262,221.5167,164.4545,221.5113,164.4592Z"/><path class="a" d="M274.64,201.7412h0c-.589.5594-1.3931-.0067-1.3218,1.26,8.509.4874,19.7033-1.9343,26.7439-6.3334C296.0378,195.4281,279.4205,200.23,274.64,201.7412Z"/><path class="a" d="M155.0031,186.4814a19.4613,19.4613,0,0,0-4.6286-.9473,18.3042,18.3042,0,0,0,4.0168-2.1266c-.75-.0854-1.3164.166-2.0734-.1372,1.9067-.2064,4.7695-1.61,7.0971-2.4358-.355-.95-.3281-1.9995-.6-2.8971,1.9885.3826,4.4334-.911,5.97-.9029a16.0512,16.0512,0,0,0,.199-5.5427,21.43,21.43,0,0,0-2.0707.5836,8.702,8.702,0,0,0-7.358-2.9368,21.008,21.008,0,0,1,.62,2.11c-11.9056.359-20.9337.8417-29.0406,10.4345-7.7453,9.1639-13.0042,16.9118-11.8626,29.1045l1.6082-3.2164c-.7033.3543-.8808,1.264-.6831-.6515,2.0641-1.8287,2.1649-1.8314,3.1936-4.034a15.7188,15.7188,0,0,0,9.45-1.9269,10.5852,10.5852,0,0,0-7.0715-1.6068c3.2809-.6724,7.3633-.6818,10.1051-3.8626a17.3493,17.3493,0,0,0-9.2445.7026c1.2707-3.9015,7.2867-4.3688,9.5457-3.8793,2.9878-2.9307,7.7735-3.878,12.5423-5.0687C148.1326,187.61,153.3005,187.2761,155.0031,186.4814Z"/><path class="a" d="M340.788,192.6742c-.5365,6.9519,2.0668,15.8468,3.4585,22.7194,1.4926,7.3741,1.9672,19.5211,6.2137,25.9559-.277-17.8221-5.2082-33.279-8.9837-50.7407Z"/><path class="a" d="M295.4353,179.0272a4.9532,4.9532,0,0,0,3.9386,4.1806c-4.99,5.47-15.7285,7.6646-22.6132,9.4664l1.5665.4222c5.3424.8108,18.3681-5.2442,24.4917-7.4427C302.0928,182.32,298.6491,179.2545,295.4353,179.0272Z"/><path class="a" d="M75.5916,556.7683c-.0558.6925-.0928,1.3521-.0928,1.94C75.4988,558.708,75.53,557.994,75.5916,556.7683Z"/><path class="a" d="M381.4129,264.6585c7.2369-4.02,6.4315-15.2787,6.4315-15.2787-1.6082-4.02,1.6082-10.452,1.6082-10.452a24.998,24.998,0,0,0,.5819-4.1839c8.3218-12.3662,15.5016-32.8,15.5016-32.8,4.8246-14.4726,4.8246-23.3184,4.8246-23.3184-1.6082-8.8445.8041-20.1007.8041-20.1007.8041-29.7492-12.8643-36.9869-12.8643-36.9869-28.9452-28.1417-66.7368-40.2012-66.7368-40.2012C323.5226,70.883,313.0706,54,313.0706,54c-7.237-10.4527-23.3178-24.9266-23.3178-24.9266a85.7544,85.7544,0,0,0-21.7082-14.4726L239.9023,4.1489C227.842.13,218.9968.9338,218.9968.9338,211.76.9338,191.66.129,191.66.129c-10.452-.8041-20.9054,2.413-20.9054,2.413q-1.5052.75-2.9179,1.502c-12.6318,6.7031-19.5958,12.9692-19.5958,12.9692-6.4328,4.8247-6.4328,18.4932-6.4328,18.4932l-4.0192,14.4725c-.8041,5.6294-18.4931,45.8321-18.4931,45.8321a49.677,49.677,0,0,0-2.7176,8.2528c-.1143.5137-.2023.98-.2763,1.4166A312.1885,312.1885,0,0,0,90.3492,125.56a95.06,95.06,0,0,0-8.8438,10.4534c-28.141,27.3356-24.1219,49.0465-24.1219,49.0465-10.16,52.2555,62.71,93.4108,67.0394,95.805,3.8995,19.0941,9.3454,40.8823,9.3454,40.8823,4.8246,20.9048,28.141,50.6567,28.141,50.6567l.5412.5829c.06,1.73.1416,3.3-2.0082,4.38-.9426,4.9564,3.012,3.4954,3.6749,6.4974.4935,2.2308-1.3678,6.0012-.6158,7.8568,1.4563,3.5916,4.1066,2.3559,6.4651,4.9658,2.4214,2.6813.5873,5.7162,4.65,6.9526.6038-1.4475,1.7642-1.9719,2.411-3.0114a7.1106,7.1106,0,0,0,.2078,1.7064c.34,2.7156,1.0955,8.4774,2.25,15.7783-11.1516,4.2309-40.6471,12.0831-40.6471,12.0831-21.1138,6.4261-42.225,32.1279-42.225,32.1279-6.4247,9.1793-11.0154,32.1293-11.0154,32.1293-2.7539,11.0155-7.3445,32.128-7.3445,32.128-1.5,8.9971-2.3868,24.7249-2.6611,30.1882a115.4713,115.4713,0,0,1,2.6611-14.5835c3.6709-7.3438,3.6722-19.277,3.6722-19.277C83.76,505.4662,97.53,472.4212,97.53,472.4212c8.2616-20.1941,37.637-34.8832,37.637-34.8832,9.2721-3.0913,36.7509-11.3825,45.2169-13.93.6938,4.1019,1.4915,8.5138,2.3925,13.0305a110.7626,110.7626,0,0,0-12.7276,16.5057c-5.5077,9.18,0,23.8663,0,23.8663l6.4262,19.2771c5.5077,12.8509,24.7847,11.9338,24.7847,11.9338-20.1941-3.6709-20.1954-15.6061-20.1954-15.6061l-4.5893-12.8509c-5.5078-11.9339-3.6723-21.1125-3.6723-21.1125,1.8913-8.1944,7.6777-13.7915,11.118-16.4949.4935,2.2919,1.0125,4.5873,1.5571,6.8624l-2.5781,4.1248c-11.9338,15.6061-.917,19.277-.917,19.277,11.0154,13.7693,23.8663,13.7693,23.8663,13.7693,11.9339,1.8368,32.128,0,32.128,0,12.8509,0,23.8677-3.6722,40.3909-9.18,1.0892-.3624,2.1713-.7463,3.242-1.1443a145.7273,145.7273,0,0,0,27.9675-14.46c14.6864-7.3432,59.668-33.0464,59.668-33.0464a284.578,284.578,0,0,0,43.1434-31.2109s3.7516-8.3248-3.6723-.9184c-.0834.0834-.1849.1762-.2743.2629l-10.43-15.3392c2.9827-.7261,10.971-1.3332,18.9664,9.5686l9.18,8.2616,7.3432,9.18s-24.7835,20.1954-42.225,33.0463c0,0-32.128,25.7032-63.3389,38.5541l-27.228,12.8966c-6.648,1.6714-16.5346,4.7749-20.5034,7.3015-4.3425,2.766-8.6461,5.6415-12.9211,8.5756-13.5962,3.4148-29.3442,3.3542-42.1588,3.3542l-.9184-.917c-2.6517-.4841-4.1711-1.6418-7.0652.047,5.84.5783,10.3515,3.8175,16.2452,4.5423,6.4342.7934,13.3067-.3167,19.28-.9157a36.8465,36.8465,0,0,0,8.5379-1.8657,487.7486,487.7486,0,0,0-41.5869,33.0739c-11.6044,10.3162-25.238,20.5881-37.84,29.8071-7.1428,5.2253-15.987,12.1322-24.7891,17.4953a332.2015,332.2015,0,0,0,58.0869-37.9153c12.1114-9.87,23.9538-19.8405,36.8746-28.46,9.5968-6.4032,6.2217-8.4659,31.0065-22.2352l11.9339-6.4262a43.8335,43.8335,0,0,0,8.6562-5.0384c13.0056-4.1147,34.3661-11.3947,41.83-16.9925,0,0,42.2264-24.7847,52.3234-33.0463,0,0,31.3481-22.3906,41.5436-30.1547l.6828.7806s.917-.92,8.2616,9.1786l8.2616,4.5907,4.5906,1.8355,13.1394,3.285c-8.27,2.5844-17.7159,9.27-22.4538,11.4l4.7238-.9157c7.5506-1.0193,18.6793-3.593,25.1256-8.6354l5.1669,1.2922s6.0039,2.7034,12.3463,6.39c-1.9683.06-3.9664.2353-5.6785.39l-1.2781.1129c-9.8984.831-23.0851,3.991-31.3545,7.514a1.3769,1.3769,0,0,0,1.0536,2.5441c10.7573-4.3285,33.34-5.6288,47.8137-3.2313a22.8432,22.8432,0,0,1,1.8822,1.8853s15.6048,3.6722,19.2771,5.5077c0,0,13.7693,7.3445,16.5231,9.18L551,468.7489S538.1491,450.39,515.2,446.718c0,0-16.5218-15.6047-32.128-16.5231l-27.5386-8.2616s-7.1674-9.84-15.3042-13.62a135.053,135.053,0,0,0-10.399-13.9186l-9.18-9.18s-12.2928-10.5207-25.289-7.9194c-15.5271-21.481-14.7522-43.49-14.7522-43.49-1.6082-7.2356-2.4123-68.343-2.4123-68.343M124.9231,94.2021l7.237-17.689c2.4123-4.8226,9.6479-27.3383,9.6479-27.3383,3.2147-8.041,4.8243-19.2972,4.8243-19.2972a22.0867,22.0867,0,0,1,6.4332-12.06l13.6684-8.8445a38.1811,38.1811,0,0,1,20.9055-5.6274,84.38,84.38,0,0,1,19.2972.8034c25.73.8041,30.5533,4.02,30.5533,4.02,7.2356.8041,18.4928,6.4321,18.4928,6.4321,20.1017,6.4329,24.9263,14.4726,24.9263,14.4726,11.2575,7.2356,23.3191,21.71,23.3191,21.71,6.2251,7.47,13.89,21.6786,17.0368,27.7188a310.6554,310.6554,0,0,0-40.1233-7.4991c-6.651-4.1349-28.95-15.1859-71.7927-10.5717,0,0-42.4781,5.1446-63.124,29.39-12.3366,5.3127-19.6936,9.2042-19.6936,9.2042-1.6358.9345-3.2937,1.9383-4.9551,2.9865ZM266.737,69.6049c-44.3758-3.2991-75.0771,3.6918-75.0771,3.6918-14.01,4.1731-26.5775,8.7866-36.8541,12.9423C168.8343,75.824,207.9979,53.1664,266.737,69.6049ZM93.5656,251.7948c-41.8108-41.8108-32.1615-53.0669-32.1615-53.0669-4.0206-31.3562,14.4725-49.8506,14.4725-49.8506,16.8849-25.7287,48.2424-42.6143,48.2424-42.6143,38.5944-22.5143,80.4053-30.554,80.4053-30.554,59.5-9.6486,121.4106,8.04,121.4106,8.04,43.4177,12.06,71.5615,43.4191,71.5615,43.4191,12.0615,9.6492,7.2356,32.9643,7.2356,32.9643l1.6082,12.0616c1.6082,4.0192-.8041,12.0616-.8041,12.0616-3.46,16.61-12.8711,37.3748-15.4266,42.84-.17-5.2395-.6569-9.8772-.6569-9.8772-.8041-4.0206.8041-10.4521.8041-10.4521l2.4123-12.8657c1.6082-20.1013-13.6684-20.1-13.6684-20.1a18.3006,18.3006,0,0,0-12.2176,3.0476c-2.7525-16.462-15.118-30.3832-15.118-30.3832-22.5137-21.71-38.5944-25.73-38.5944-25.73-47.44-20.9054-109.35-9.6466-109.35-9.6466-42.615,8.0391-67.54,29.7479-67.54,29.7479-33.77,32.1623-26.5342,56.2834-26.5342,56.2834,0,19.2972,6.4329,45.8314,6.4329,45.8314q.3237,1.2123.6347,2.41c-4.8341,6.7287-3.7577,23.2976,5.3477,23.0415.3086,1.8159.6555,3.7327,1.0313,5.7175C112.7842,268.1661,93.5656,251.7948,93.5656,251.7948Zm27.2865,10.6161c-3.252-4.4367-8.3052-7.3539-3.4994-14.5673C118.8506,253.7251,120.0843,259.02,120.8521,262.4109Zm46.4426,83.7911v-1.3769c2.3719,3.9694,2.9824,7.3392,1.4522,11.91C165.7618,352.7277,166.6707,350.4162,167.2947,346.202Zm9.7676,4.6929a26.05,26.05,0,0,0-2.9731-1.1241c.4276-1.5276-.2985-3.2057.386-4.7225-3.9628-.8048-4.4267-3.4813-2.4124-6.4745a23.55,23.55,0,0,0-2.8372-.1049c3.7422-5.0989,13.8732-12.2445,14.24-18.3727,16.1147,2.1467,30.1227-9.0772,46.7884-12.0179,9.0953-1.6042,17.2789-3.12,26.5325-4.0206,10.76-1.0475,18.55-2.0439,27.8577-8.0975-8.587,3.6366-17.4672,1.9739-25.9479,4.9389,1.3473-.948-4.5988-1.6176-3.518-2.4694-9.1729,2.2455-10.5835,3.0893-19.2969,4.8239-8.2064,1.6345-23.8408,8.37-32.0244,5.7289-.1923.7591-.1143,1.414-.2743,2.175-3.8551,1.8557-7.8031,4.9417-11.1445,5.9192-2.5361.7416-7.5237-.041-10.3294.1937-2.28-6.6252,10.44-14.2319,15.1792-17.4087,2.6362-1.7675,6.3189-3.1357,9.3572-4.9759,8.2821,1.49,20.47.2394,26.009-5.8251.0511.1291.0952.26.149.388,4.5721,1.5954,8.7271-3.9594,13.3555.0383,2.4392-2.9556,9.4216-.5459,11.4094,2.2066.2635-.987.9238-1.51.9453-2.7942,9.9384-.46,17.5747,5.36,27.9057,4.8246,2.1972,5.1749,6.6978,8.6919,9.1571,13.333,3.1022,5.8553,1.3837,14.0174,8.5669,18.1267a6.9082,6.9082,0,0,1-8.8371.8834c.6494,1.45,4.7143,7.1576,4.1765,8.5843-1.2223,3.2373-7.5826,2.2577-9.5673.8472.4034,1.0555.121,3.4786.5392,4.62-1.1228-.1493-2.6785.4034-3.7946.242-.0619,3.9527.7517,7.2948,1.4052,11.1755-2.411.8028-4.2371,2.1555-7.0729,1.7286,1.44,1.4,1.4092,3.3112,2.2039,4.5456-4.5329-.2326-12.8742-6.5445-13.058,1.7844-1.6069-.4458-3.6777.4376-5.17.082-.02.0645-.04.1432-.0612.2266a18.4971,18.4971,0,0,0-4.7366-3.9486c.1842,3.371,2.0469,6.4059,3.7462,9.5343-.9806,5.0848-2.7364,10.8151-6.4624,6.2486-6.1572-.1876-6.38,8.3255-15.8065,6.9593-3.5848-4.4065-11.3681,10.6867-16.3551,1.8879-1.5315.9271-3.843,1.0166-5.2926,2.99a12.2818,12.2818,0,0,1-2.0035-7.6235c1.9387-2.6746,3.8262-5.4358,4.1859-8.09-3.36,1.44-5.2737,4.7144-7.6561,7.38a4.7978,4.7978,0,0,0-2.7811,1.92,20.1556,20.1556,0,0,1-.909-7.85c-1.1527.59-3.1963.3718-4.5413,1.38-.0332-1.4261-.917-1.8315-.46-3.8343-3.0846,1.6956-18.06,6.5888-11.26-1.7494a50.883,50.883,0,0,0-7.5583,2.3726c-2.0479-2.3175-2.0278-4.6458.36-7.0184-2.2473.0309-3.8108-1.0959-6.09-1.0879.757-1.112.6841-2.5548,1.4469-3.6554-1.4361-.5426-2.4567-1.4973-3.9816-1.7124-.6548.36-.9332,1.1927-1.5625,1.6088C176.8525,353.1445,175.3882,354.0051,177.0623,350.8949Zm11.3005-58.4174a1.69,1.69,0,0,1,.3025-.4155C188.5642,292.2046,188.4647,292.3323,188.3628,292.4775Zm81.9886,98.9818a11.2468,11.2468,0,0,1,6.8853-.9924c-.3466,4.2525-3.2372,6.48-6.9519,7.5294A17.1205,17.1205,0,0,0,270.3514,391.4593Zm-10.6682,6.5021a31.7387,31.7387,0,0,0,6.6561-4.0616c-.0081,1.5981-.0068,3.1949.0124,4.7883q-.5274.0454-1.06.072a16.5146,16.5146,0,0,1-5.4334,7.206A24.2032,24.2032,0,0,0,259.6832,397.9614ZM222.57,402.4707c5.47-.232,13.6059,3.2668,18.7721-3.7718.9248,2.8164,3.68,4.9053,4.47,6.5714.8445-4.0233,3.3778-7.6794,5.1958-10.7385-.42,3.6629.4195,4.5853.5863,7.951a33.8584,33.8584,0,0,0,2.6866-3.718c.193.0161.3691.0007.5577.0081-.2067,3.5425.4138,7.0964.5769,10.6658-2.1286,1.7763-3.8717,3.7617-4.4021,6.8551-3.7462-2.4487-6.9425-6.2863-10.4672-9.3252-.7863,1.4589-2.3905,3.0308-2.9915,4.12-2.58-3.3253-6.4786-3.8047-9.4395-5.4755-.6065.7766-.9964,2.0305-1.541,2.7526C223.6137,407.1528,223.0382,405.1761,222.57,402.4707Zm-22.1634,7.96c-3.4477-4.2519-5.6731-9.0025-5.782-14.5224-1.4213.6172-3.3065.8257-4.7843,1.3709a28.3253,28.3253,0,0,0,2.2967-11.591c.2544,2.3371,1.3218,4.4986,1.5275,7.122a10.17,10.17,0,0,0,7.6128-2.4943C198.1714,396.1387,198.6363,403.3245,200.4069,410.4311ZM187.116,455.4919a120.19,120.19,0,0,0,6.8261,19.7114l-.0272-.0282C179.0641,469.6062,182.9838,460.7052,187.116,455.4919Zm180.0085-215.51c1.9706-5.9589,9.3236-.9191,12.52-6.0389,2.7659-4.432-1.424-12.8764-6.1492-12.5846.8606,3.2594,2.7388,6.4947,2.1673,10.2113-3.1428.0565-9.2933.1331-10.7791,2.3572-1.3017-3.6191-2.532-7.2934-3.5721-11.08h-1.6082c4.007,3.3321,5.0142,21.6652,6.609,28.1437,2.4015,9.7582,4.799,20.0973,5.4512,30.552,1.37,21.9543-6.6359,38.4761-13.5474,57.7881,10.844-8.983,14.9095-23.3372,16.6885-37.5832.9379,17.5189,1.6835,33.6662,1.6835,33.6662.708,32.5684,23.2263,58.2668,28.5979,63.944-10.654,8.782-34.1056,24.4109-34.1056,24.4109-9.0684,5.8291-40.9892,23.0865-58.9969,32.7411-7.5126,4.0273-12.6035,6.7314-12.6035,6.7314-30.2925,16.5232-52.3234,16.5232-52.3234,16.5232-24.969,5.6751-39.4046,2.579-46.7948-.6118-1.5561-3.2138-4.9383-11.2266-9.4022-27.6765.128-.11.2013-.1687.2013-.1687l-.4138-.6206c-2.9713-11.043-6.4083-25.79-10.0987-45.3023a5.8378,5.8378,0,0,1,2.1662,1.5948c1.56,1.9155,2.8315,4.9349,4.8274,7.2329,1.8045,2.08,5.2656,3.515,7.2732,5.59,2.3757,2.4553-1.0986,6.6749,5.4486,5.8082.9076,3.72,4.436,5.2435,7.8649,5.5656.1439-2.2147,4.672-1.5733,9.3366-.6986,6.45,7.3,10.6894,10.2867,18.5758,18.9947-3.9728-9.0966-6.691-12.0078-10.0607-17.7105a.0819.0819,0,0,1,.0131,0c-.0736-1.9807,1.19-2.5253.4585-4.7225,4.228-.874,7.9271-5.5789,11.9235-6.2123,6.71-1.0636,7.6081,6.3461,12.6425,7.0931,4.3593.6468,21.9579-11.2548,21.8708-13.5864,2.013-.1742,5.66,1.1308,7.0972.6992,4.0067-1.2021,3.5848-2.7593,5.6058-4.0784,4.1591-2.7135,7.7816-3.7462,12.7689-5.7228.1816-.745.117-1.3891.2743-2.1381,6.441-4.3809,11.0236-.0289,16.7478-3.1747,3.3011-1.8153,2.6194-4.2155,4.627-6.7905,2.2455-2.88,4.3822-3.1842,6.0039-5.27.5244-.6737,2.2267-.6764,3.0762-1.7481.9171-1.1578-.87-4.1718.1429-5.4855,2.0465-2.6551,5.3974-3.2709,7.2732-5.612,4.1268-5.1527,3.0175-11.7073,6.9008-17.2439-2.415-4.8784,3.8955-10.249,5.9031-14.2736,2.5007-5.0122,5.189-10.6779,6.1545-16.0155-3.5069,1.5262-7.7547,8.1137-11.9608,8.7974-3.67.5944-9.6654-4.0178-12.8858-5.6623-8.5874-4.3836-15.1409-7.42-19.45-16.889-4.155-9.13-3.2783-19.9171-8.0438-28.7663-1.5786-2.9327-6.7435-9.8442-10.0755-11.6918-4.2532-2.3572-10.94-.7153-15.3722-2.8386.7988.4377,2.533,1.7669,3.6346,2.4271-2.6664,2.3344-7.9052,1.8483-11.4363.57a32.2737,32.2737,0,0,1,3.008,2.4459c-5.5669,2.7694-8.5036-3.0019-12.2915-1.56a9.0227,9.0227,0,0,1,1.6633,1.4421c-3.4638-.3314-7.9442-.8256-11.0763-2.1306a11.046,11.046,0,0,0,.4065,1.5921c-4.4764-1.1127-8.5306-1.0515-11.6408-4.826.14.8344.3873,1.3379.5836,2.1488a37.1027,37.1027,0,0,1-8.625,1.0878c-.1341,1.541-.6531,2.26-.4578,3.7792-2.16.1472-2.3885,1.2377-3.78,1.7285,2.6164,2.3673,3.3291,5.5319,4.4159,8.659-4.153,1.2149-7.5658,2.95-12.38,3.44-2.7539.28-5.9777-.6159-8.861-.0955,1.66-2.1125,2.9993-4.6438,4.74-7.0366-1.6432.9628-3.6262.6845-5.306,2.2954.323-1.5289-.8108-1.7643-.34-3.1641-1.4173,1.6069-3.1721,1.2029-4.8233,2.1314.18-1.3689-.5325-1.7858-.1775-3.0693-.1062.0579-2.0331.1432-1.9834.1917l-.9362-.1372c-5.9757,1.0784-9.32,4.112-12.7739,8.79-4.8435-.3234-6.4275,5.2382-9.9182,7.916a99.1868,99.1868,0,0,0-12.0831,10.6087c-5.4177,5.5622-7.2424,6.7643-9.4463,14.4961-1.1271,3.956-1.9511,4.63-3.39,7.7473-2.4536-5.4963-6.8964-10.9926-10.51-15.2168,2.4551,6.0469,6.482,11.6951,9.1246,17.8638a12.2545,12.2545,0,0,0-1.6923,4.6054,5.4791,5.4791,0,0,1,2.6766-2.0506q.245.7.46,1.4106c-2.9969,4.6-5.9208,12.9006.7631,13.6832,1.4563-3.0665,1.3783-1.2626,4.0367-2.173,3.9318,5.2792-.355,12.3064,6.4315,15.2767.0057.9077-.0578,2.1051-.02,3.0006-.6414-.002-.6266-.7765-1.2492-.6091a5.9031,5.9031,0,0,0-1.1174,1.1457c-3.8037-6.2682-7.1213-11.7181-7.1213-11.7181-16.0821-20.1013-20.9054-46.6341-20.9054-46.6341-1.5864-5.5514-3.759-15.6-5.5541-24.3612a37.5857,37.5857,0,0,0,5.9333,10.3021c-8.8828-13.3915-5.3706-34.24-2.7525-47.5855v-2.03c-4.0979,6.1646-6.44,15.1745-6.125,24.4822-.2212-1.1484-.3469-1.814-.3469-1.814-.8041-4.8246-4.8233-18.4931-4.8233-18.4931-4.8233-29.7506-8.8451-51.4587-8.8451-51.4587-1.6083-12.8644,2.4123-20.9061,2.4123-20.9061,0-7.2363,12.8643-22.513,12.8643-22.513,5.6288-8.0411,17.6887-16.8849,17.6887-16.8849,16.0811-11.2575,48.244-22.5136,48.244-22.5136,30.5547-5.6288,49.8506-4.0179,49.8506-4.0179,45.0273,0,61.9121,8.8418,61.9121,8.8418,13.4413,6.014,22.6774,11.7147,28.8111,16.216a34.2071,34.2071,0,0,1,5.4589,7.9617c-1.4266-.6643-3.1787-.57-4.5987-1.3474a60.339,60.339,0,0,0,5.4028,11.0142c-1.1348-.3732-2.7014-.3846-3.6386-.7168,6.5041,4.4993,5.103,14.6642,7.96,21.5462,3.4558,8.3228,5.83,14.8645,7.3566,24,5.0627.4921,4.783-4.3641,5.7054-7.2747.2918-.9217.5355-1.871.7819-2.82a61.69,61.69,0,0,0,7.8653-6.6695c6.4332-6.4322,12.0606-4.8253,12.0606-4.8253,12.8643,3.2171,8.8438,13.6705,8.8438,13.6705l-1.6069,13.6684a18.3474,18.3474,0,0,0-.5849,3.1109c-.986-2.5192-2.2342-4.9732-3.6145-7.7379-1.5463-3.098-5.4378-16.5971-8.53-12.4394-1.5854,8.431,7.4047,16.7363,12.0515,24.06a29.2213,29.2213,0,0,0,.6777,5.0667c.8041,4.8246-1.6082,20.9054-1.6082,20.9054-1.6082,4.8246,0,10.452,0,10.452l-1.6082,6.4329c-1.5154,5.0512-5.8856,5.341-8.9265,4.86-.7255-2.8433-1.5719-5.6409-2.5031-8.4115a18.2426,18.2426,0,0,1,7.2854-2.214c-.64-1.0367-.4088-2.5845-1.5625-3.882,1.3729-1.2076,2.0385-3.5432,3.2137-4.662-2.9085-.4921-4.2263.2273-6.254,2.2523.46.8754.835,2.1488,1.3917,3.0127-2.5495.8283-2.4244,2.1817-5.3894,1.1262m-55.65,84.5387,2.7539,2.7539a21.2984,21.2984,0,0,1,7.6484,6.8847c.2555.4612,1.39,4.01,1.8167,5.3356a28.5623,28.5623,0,0,1-7.8851-1.4119A31.078,31.078,0,0,0,314.6263,332.4327Z"/><path class="a" d="M156.9889,593.16c-4.67,2.3989-9.3784,4.7245-14.159,6.8995A69.9327,69.9327,0,0,0,156.9889,593.16Z"/><path class="a" d="M369.678,494.2477c15.0347-11.4417,27.8923-24.5131,44.273-33.9647,6.4187-3.7046,24.65-16.1676,33.8114-16.1447-19.8593-2.9656-51.7146,23.3776-65.6691,34.6835-2.6265,2.1286-5.2106,4.3607-7.7513,6.6608-4.1759.1418-8.5-1.1773-13.3115-.1634-8.3463,1.76-15.7674,4.6962-23.9389,7.5718a168.3337,168.3337,0,0,0-32.8649,15.15c-8.1916,5.062-14.2439,12.5255-21.87,17.7105,20.7262-13.7558,46.9458-27.4592,72.2-31.3-18.3586,10.0971-49.2364,23.3406-65.3787,44.7247-9.894,13.1064-22.1774,20.4577-31.9249,31.4651-9.2606,10.456-21.1125,22.6131-32.2624,28.496,11.3879-3.8269,24.7848-16.1843,34.0481-24.1353,8.5507-7.3385,17.0244-15.36,25.0847-23.4576,23.6283-23.74,42.5719-44.2769,75.941-53.422l2.7538-1.8354c.316-.2145.6122-.42.91-.6253-3.8531,3.8726-7.5953,7.791-11.2111,11.6192-12.8509,13.6053-28.0227,25.9788-40.9624,39.38,6.7475-6.1061,14.7832-11.51,21.8857-17.5559C346.1909,518.2546,356.0123,504.6473,369.678,494.2477Z"/><path class="a" d="M120.5234,486.3082c-8.6085,7.0857-11.4162,22.482-13.8608,32.8816-3.1317,13.3189-10.9173,29.3929-10.764,43.1172,9.43-24.058,17.4685-50.3609,26.4159-75.1994l-.9171.9184C120.6525,487.2071,122.3669,486.2288,120.5234,486.3082Z"/><path class="a" d="M421.5684,496.2405c-8.4337,11.2064-13.8947,24.5979-19.277,37.6827-3.4665,8.4284-8.95,30.033-4.8193,37.5671,5.7619-23.3735,11.3046-45.4266,23.4065-66.9411,5.9219-10.526,12.0495-19.8983,20.888-28.2312,5.5366-5.2213,20.6792-18.5032,31.6022-20.8644C453.6782,454.3577,431.9035,482.5082,421.5684,496.2405Z"/><path class="a" d="M437.2428,463.9263l-.0521-.513.0464.0283.5224-2.4729-.65-.0887c-13.06-1.79-27.2751,10.42-37.6549,19.3335-1.4058,1.2075-2.738,2.3511-3.9829,3.3872-7.6289,6.3468-14.7586,14.0275-21.654,21.4554-7.4262,8-15.1056,16.2731-23.2842,22.7012l.7937,1.1235c8.546-5.4076,16.2476-13.249,23.6953-20.8328,4.8371-4.9255,9.8389-10.0184,14.9086-14.244,1.9386-1.615,3.9869-3.3886,6.1266-5.2415C407.9776,478.24,422.8123,465.394,437.2428,463.9263Z"/></svg>